<?xml version="1.0" standalone="no"?>
<!DOCTYPE svg PUBLIC "-//W3C//DTD SVG 20010904//EN"
 "http://www.w3.org/TR/2001/REC-SVG-20010904/DTD/svg10.dtd">
<svg version="1.0" xmlns="http://www.w3.org/2000/svg"
 width="236.000000pt" height="236.000000pt" viewBox="0 0 236.000000 236.000000"
 preserveAspectRatio="xMidYMid meet">
<metadata>
Created by potrace 1.14, written by Peter Selinger 2001-2017
</metadata>
<g transform="translate(0.000000,236.000000) scale(0.100000,-0.100000)"
fill="#000000" stroke="none">
<path d="M1005 2130 c-38 -4 -98 -20 -133 -34 -35 -15 -67 -24 -71 -21 -5 2
-14 -2 -21 -10 -7 -8 -16 -13 -20 -10 -21 13 -80 -23 -114 -70 -67 -95 -98
-164 -91 -201 4 -22 0 -44 -11 -65 -13 -26 -15 -50 -10 -128 3 -53 8 -112 10
-131 3 -19 8 -61 12 -92 11 -93 28 -71 20 26 -8 116 12 219 64 321 45 86 70
115 103 115 12 0 36 14 54 32 22 22 44 32 70 34 21 2 40 3 43 4 3 0 -7 8 -22
16 -34 18 -38 39 -5 29 43 -14 77 -17 77 -8 0 5 19 17 43 27 83 35 106 47 112
56 8 13 83 3 161 -21 86 -27 224 -119 224 -151 0 -7 18 -23 39 -35 28 -16 43
-33 51 -60 7 -21 17 -44 23 -52 6 -7 16 -23 22 -35 6 -11 20 -22 32 -24 23 -3
23 -11 -5 101 -25 95 -127 239 -180 252 -14 3 -32 15 -40 26 -8 12 -20 18 -29
15 -9 -4 -30 7 -49 24 -19 16 -41 30 -50 30 -8 0 -26 7 -39 16 -13 9 -29 13
-34 9 -6 -3 -24 1 -40 10 -32 16 -80 17 -196 5z m350 -100 c10 -11 14 -20 8
-20 -5 0 -18 9 -28 20 -10 11 -14 20 -8 20 5 0 18 -9 28 -20z"/>
<path d="M1239 1580 c-113 -30 -185 -98 -177 -167 2 -20 10 -29 33 -35 24 -6
45 0 113 34 57 28 100 43 138 46 107 9 48 37 -78 37 -89 0 -89 7 2 50 33 16
60 35 60 42 0 16 -9 16 -91 -7z"/>
<path d="M1673 1592 c-17 -2 -23 -10 -23 -28 0 -13 -5 -24 -11 -24 -5 0 -7 -4
-4 -10 10 -16 25 -12 25 6 0 12 7 15 25 12 22 -5 24 -2 20 20 -5 29 -4 29 -32
24z"/>
<path d="M1737 1474 c-3 -4 4 -19 17 -35 13 -16 26 -34 29 -41 2 -7 8 -10 12
-6 9 8 -26 81 -41 85 -5 2 -13 0 -17 -3z"/>
<path d="M732 1438 c-16 -10 -36 -15 -49 -12 -33 9 -58 -3 -44 -20 6 -7 8 -16
4 -19 -15 -16 27 -15 76 2 60 19 103 17 94 -5 -3 -8 -9 -11 -14 -8 -5 3 -9 0
-9 -7 0 -7 -3 -9 -6 -6 -13 13 -80 -35 -99 -69 -22 -42 -13 -55 18 -25 15 13
47 26 83 32 32 6 81 15 107 19 67 12 80 25 72 69 -12 64 -28 73 -123 69 -58
-2 -92 -8 -110 -20z"/>
<path d="M1696 1382 c-3 -6 -1 -14 5 -17 15 -10 25 3 12 16 -7 7 -13 7 -17 1z"/>
<path d="M497 1293 c-3 -4 -7 -26 -8 -48 -4 -35 -1 -40 16 -40 17 0 20 6 18
39 -3 40 -16 65 -26 49z"/>
<path d="M562 1260 c-16 -52 -15 -57 8 -63 20 -5 27 -38 22 -110 -1 -16 4 -35
12 -43 13 -12 14 -7 11 44 -2 32 -7 76 -11 98 -10 51 -11 54 -12 87 -3 39 -15
33 -30 -13z"/>
<path d="M818 1278 c-48 -25 -52 -58 -8 -58 34 0 79 20 100 45 11 13 10 15 -4
9 -9 -4 -24 0 -34 9 -15 13 -21 13 -54 -5z"/>
<path d="M1315 1175 c31 -29 45 -49 38 -52 -7 -2 -13 -10 -13 -17 0 -8 -20
-12 -62 -12 -62 1 -63 1 -61 29 2 24 -2 27 -30 27 -20 0 -41 -9 -60 -27 -26
-25 -35 -28 -107 -29 -77 -1 -117 -15 -104 -35 3 -5 -9 -23 -26 -39 l-31 -29
1 47 c1 26 1 51 1 57 -1 5 -30 -20 -66 -55 -70 -69 -79 -96 -49 -138 12 -18
14 -35 9 -68 -7 -48 -22 -61 -52 -46 -13 7 -23 5 -37 -9 -19 -19 -19 -19 7
-19 18 0 28 -7 33 -22 3 -13 36 -56 71 -97 53 -61 63 -78 58 -99 -16 -66 -16
-86 0 -138 11 -36 27 -62 45 -76 15 -11 43 -40 61 -64 18 -24 37 -44 42 -44 4
0 -1 12 -12 26 -12 15 -21 34 -21 43 0 10 -5 22 -12 29 -9 9 -9 12 1 12 7 0 9
5 5 12 -4 7 -3 8 4 4 7 -4 12 -13 12 -21 0 -9 8 -12 24 -9 24 4 61 -20 52 -35
-4 -6 59 -55 76 -57 4 -1 11 -3 16 -4 4 -1 15 -3 24 -4 18 -1 26 -21 8 -21 -5
0 -10 -3 -10 -7 0 -5 0 -12 0 -18 0 -5 4 -9 9 -7 5 1 16 -7 24 -18 26 -34 136
-21 137 16 0 4 -9 18 -21 33 -22 28 -66 35 -87 14 -8 -8 -15 -8 -27 2 -19 16
-2 42 22 33 9 -4 14 -2 11 3 -7 10 76 9 92 -1 6 -3 8 -17 6 -30 -3 -18 1 -26
15 -30 31 -10 34 1 10 33 -27 38 -26 46 4 76 15 15 22 31 19 40 -4 10 1 18 11
22 12 5 15 14 10 32 -5 22 4 36 74 103 56 52 83 86 87 107 4 17 26 54 50 82
32 38 44 60 44 84 0 22 8 39 26 55 21 18 25 29 22 69 -2 36 -6 46 -18 43 -8
-2 -25 -4 -37 -4 -12 1 -23 -7 -26 -17 -3 -13 -11 -17 -26 -13 -11 3 -18 9
-15 14 8 13 -10 11 -24 -3 -17 -17 -15 -55 4 -62 10 -4 13 -13 9 -26 -4 -12
-1 -27 5 -35 9 -11 9 -18 -3 -29 -9 -9 -12 -25 -9 -42 4 -24 3 -25 -15 -15
-23 12 -33 6 -33 -21 0 -11 -13 -23 -37 -33 -32 -14 -38 -14 -53 0 -23 21 -30
19 -30 -11 0 -22 -4 -25 -21 -21 -13 4 -28 -2 -41 -15 l-20 -20 -19 21 c-22
23 -35 27 -41 10 -2 -6 -15 8 -30 30 -29 44 -27 54 8 45 27 -7 29 -2 14 27
-13 24 -45 25 -62 1 -14 -19 -49 -24 -59 -9 -12 18 -29 -4 -23 -29 6 -23 -9
-34 -20 -15 -7 11 -46 2 -46 -10 0 -4 5 -11 10 -14 17 -11 11 -28 -7 -20 -10
4 -24 8 -31 8 -28 1 -72 92 -72 148 0 26 4 29 32 29 35 0 98 20 98 31 0 4 -12
9 -27 11 -41 5 -38 23 6 38 22 7 42 19 46 27 3 9 12 13 21 9 9 -4 22 -2 29 4
7 6 36 11 65 11 34 1 53 6 57 15 3 8 11 14 18 14 16 0 29 -35 20 -50 -10 -16
18 -11 51 9 18 11 57 22 88 26 31 4 59 12 63 18 9 15 6 144 -4 161 -19 33
-115 86 -166 91 l-52 6 50 -46z m-460 -438 c1 -35 -11 -44 -24 -18 -17 30 -14
53 7 49 11 -2 17 -13 17 -31z"/>
<path d="M594 742 c-9 -5 -8 -11 2 -20 8 -7 14 -11 14 -8 0 2 3 11 6 20 6 17
-3 21 -22 8z"/>
<path d="M1130 714 c0 -8 5 -12 10 -9 6 4 8 11 5 16 -9 14 -15 11 -15 -7z"/>
<path d="M1705 720 c-3 -5 13 -52 35 -105 25 -59 39 -104 35 -116 -4 -10 -2
-19 4 -19 29 0 47 164 21 195 -20 24 -88 57 -95 45z"/>
<path d="M90 383 c0 -6 -3 -18 -6 -27 -4 -11 -1 -16 10 -16 9 0 16 6 16 13 0
16 -20 46 -20 30z"/>
<path d="M254 375 c-4 -8 -13 -15 -21 -15 -8 0 -11 -4 -8 -10 7 -12 65 15 65
30 0 16 -30 11 -36 -5z"/>
<path d="M147 374 c-9 -10 2 -24 19 -24 8 0 14 7 14 15 0 15 -21 21 -33 9z"/>
<path d="M1838 294 c-30 -16 -34 -36 -18 -80 6 -15 8 -35 4 -43 -4 -9 -7 -33
-8 -53 -1 -36 0 -37 21 -23 29 19 49 19 57 0 3 -8 9 -15 14 -15 10 0 47 70 45
87 0 6 6 14 13 17 8 3 14 -1 14 -8 0 -12 41 -66 50 -66 3 0 6 16 8 35 4 57
-51 145 -89 145 -10 0 -21 5 -24 10 -9 15 -56 12 -87 -6z"/>
<path d="M733 230 c-12 -5 -27 -19 -34 -32 -12 -22 -14 -26 -18 -45 -1 -5 -5
-2 -10 6 -6 9 -11 10 -15 2 -4 -6 0 -14 8 -17 11 -4 13 -12 6 -28 -4 -13 -11
-37 -13 -54 -6 -37 4 -40 59 -17 20 8 47 12 60 9 13 -4 30 -2 37 4 6 5 47 15
91 21 65 9 80 9 90 -3 6 -7 30 -16 54 -19 24 -3 51 -12 61 -21 38 -35 57 -7
21 32 -23 24 -25 34 -7 31 24 -3 38 1 32 10 -3 5 -40 9 -83 9 -43 -1 -90 5
-107 12 -16 7 -36 14 -44 16 -51 10 -58 15 -67 51 -9 36 -11 38 -54 40 -25 1
-55 -2 -67 -7z"/>
<path d="M30 188 c0 -7 4 -19 9 -27 11 -17 25 3 17 24 -7 18 -26 20 -26 3z"/>
<path d="M147 178 c-2 -7 -2 -21 1 -31 4 -15 7 -16 13 -5 12 17 11 48 0 48 -5
0 -11 -6 -14 -12z"/>
<path d="M210 181 c0 -5 -3 -17 -6 -25 -5 -12 -2 -15 10 -10 17 7 22 44 6 44
-5 0 -10 -4 -10 -9z"/>
<path d="M1764 131 c-31 -19 -64 -57 -64 -74 0 -19 85 44 92 68 3 14 6 25 5
25 -1 0 -16 -9 -33 -19z"/>
<path d="M1498 34 c-77 -24 -71 -37 13 -31 119 9 155 18 144 38 -9 14 -103 10
-157 -7z"/>
</g>
</svg>
